<svg width="24" height="24" viewBox="0 0 24 24" fill="none" xmlns="http://www.w3.org/2000/svg">
<g id="Group 39678">
<g id="Shopicon">
<path id="Vector" d="M20.136 15.3844L23.5477 5.14936L22.3797 4.75982L19.2486 14.1537H7.82831L3.52062 1.23059H0V2.46136H2.63323L6.72554 14.7371L3.976 20.9229H20.9231V19.6921H5.87015L7.78461 15.3844H20.136Z" fill="black"/>
<path id="Vector_2" d="M9.23077 24.0006C9.9105 24.0006 10.4615 23.4496 10.4615 22.7698C10.4615 22.0901 9.9105 21.5391 9.23077 21.5391C8.55103 21.5391 8 22.0901 8 22.7698C8 23.4496 8.55103 24.0006 9.23077 24.0006Z" fill="black"/>
<path id="Vector_3" d="M16.6175 24.0006C17.2972 24.0006 17.8483 23.4496 17.8483 22.7698C17.8483 22.0901 17.2972 21.5391 16.6175 21.5391C15.9378 21.5391 15.3867 22.0901 15.3867 22.7698C15.3867 23.4496 15.9378 24.0006 16.6175 24.0006Z" fill="black"/>
<path id="Vector_4" d="M12.9228 0V3.69231H9.23047V4.92308H12.9228V8.61539H14.1535V4.92308H17.8459V3.69231H14.1535V0H12.9228Z" fill="black"/>
</g>
</g>
</svg>
