<?xml version="1.0" encoding="utf-8"?>
<!-- Generator: Adobe Illustrator 24.2.3, SVG Export Plug-In . SVG Version: 6.00 Build 0)  -->
<svg version="1.1" id="Capa_1" xmlns="http://www.w3.org/2000/svg" xmlns:xlink="http://www.w3.org/1999/xlink" x="0px" y="0px"
	 viewBox="0 0 1080 407.6" style="enable-background:new 0 0 1080 407.6;" xml:space="preserve">
<style type="text/css">
	.st0{fill:#017E7B;}
</style>
<g>
	<path class="st0" d="M911.9,234.9c-17-1.7-33-5.9-46.6-17C848,204,839,185.7,835.9,164.1c-1.2-8.2-1.1-16.5-0.8-24.8
		c0.2-3.7,1.8-5.4,5.5-4.8c3,0.5,4.1-0.2,3.7-3.6c-1.2-9.4,1-18.2,4.6-26.8c1.8-4.2,3.2-8.6,5.8-12.4c0.5-0.7,0.8-1.8,1.9-1.6
		c1.1,0.2,1,1.4,1,2.2c0.4,6.6,2,13.1,3.1,19.6c1.3,7.5,1,15-1.9,22.1c-0.3,0.9-1.3,1.9,0,2.7c1.2,0.8,2.6,1.4,4,1
		c1.3-0.4,0.8-1.7,0.7-2.7c-0.7-11.5,2.8-22.1,7.2-32.5c0.4-0.9,0.6-2.2,1.8-2.2c1.4,0,1.4,1.3,1.6,2.2c2.1,7.9,4.8,15.6,5.3,23.8
		c0.3,4.7-0.3,9.2-2.5,13.3c-1,1.9-0.6,2.7,1.2,3.4c9.2,3.7,18.1,8.1,26.5,13.5c1.6,1,3.4,0.8,5.2,0.3c21.1-5,42.5-6.6,64-5.8
		c3.1,0.1,4.3-0.5,4-3.9c-0.7-7.3,3.1-13.5,6-19.8c0.6-1.4,1.3-2.8,2.1-4c0.5-0.9,0.2-2.6,1.9-2.4c1.1,0.1,1.4,1.4,1.7,2.3
		c3.1,8.4,5.4,17,3.9,26.1c-0.3,2,0.3,2.9,2.3,3c0.2,0,0.5,0.1,0.8,0.1c10.1,0.6,8.8,1.4,7.5,9.9c-3.7,24.6-14.4,45.3-35.1,59.9
		c-12.7,9-27.3,12.8-42.8,13.2C921.5,235.5,916.7,235.6,911.9,234.9L911.9,234.9z M928.4,227.8c3-0.3,6-0.7,9.1-1
		c2.8-0.2,4.5-1.8,5.7-4.3c11.6-22.6,25.5-43.4,45.1-59.9c0.6-0.5,1.7-1,1.3-2.1c-0.4-1-1.6-0.6-2.4-0.6c-4.2-0.3-7.1,2.5-10.2,4.6
		c-14.5,9.9-26,22.7-36,36.8c-5.1,7.3-9.9,14.8-14,22.7C926,225.7,925.2,227.5,928.4,227.8z M970.1,160.2c-4.7-1.4-7.4-1-11.8,1.6
		c-9,5.3-17.6,11.2-25.6,17.9c-14.5,12.1-26.5,26.3-37.4,41.7c-1.3,1.8-0.9,2.8,1.1,3.2c2.2,0.5,4.5,0.9,6.7,1.5
		c2.9,0.7,4.8-0.2,6.3-2.8c3-5,6.3-9.8,9.9-14.4c11.4-14.6,23.1-28.8,38.1-39.9C961.5,165.9,965.8,163.1,970.1,160.2L970.1,160.2z
		 M945.1,161.1c-4.1-0.4-6.9,0.2-9.7,1.2c-9.7,3.6-18.7,8.6-27.2,14.5c-12.5,8.6-23.9,18.5-34.1,29.7c-5.2,5.7-5.4,4.5,0.9,9.1
		c0.1,0.1,0.2,0.1,0.3,0.2c2.4,2.1,4.2,1.8,6.3-0.8c7.6-9.4,16.1-18,25-26.2c7.9-7.3,16.3-14.1,25.5-19.8
		C936.2,166.6,940.1,164.2,945.1,161.1L945.1,161.1z M961.1,217.4c1.5,0.3,2.1-0.3,2.7-0.7c16.7-11.7,27.1-27.6,31.5-47.5
		c0.2-0.7,0.6-1.6-0.2-2.1s-1.5,0.2-2,0.7c-3.5,3.3-6.6,7-9.6,10.9C974.5,190.6,967.4,203.6,961.1,217.4L961.1,217.4z M859.6,200.8
		c1,0.2,1.1,0.1,3.1-1.6c11.2-9.8,22.6-19.3,35.6-26.7c0.7-0.4,1.9-0.8,1.4-1.9c-0.5-0.9-1.6-0.5-2.4-0.3
		c-14.4,4.8-28.1,11-40.6,19.8c-1.2,0.8-3.6,1.4-2.5,3.6C855.6,196.5,857.1,199.1,859.6,200.8z M843.1,144.5c0.5,0.4,0.9,0.8,1.5,1
		c11.5,5.1,21.9,11.7,30.8,20.6c0.3,0.3,0.5,0.6,0.9,0.8c1.8,1,3.4-0.2,4.4-1.2c1.1-1.2-0.7-1.9-1.5-2.5c-1.8-1.4-3.7-2.6-5.5-4
		C864.5,152.1,854.5,147,843.1,144.5z M842.6,150.7c-0.6,4.5,2.9,5.4,5.1,7.3c5,4.3,9.6,9,13.7,14.2c1.9,2.4,3.7,1.2,5.2,0.1
		c1.9-1.4-0.2-2.4-1-3.2C859.3,161.5,851.6,155.7,842.6,150.7L842.6,150.7z M843.3,162.7c0.8,6.4,2.1,11.6,3.9,16.8
		c0.5,1.5,0.9,3.7,3.2,2c1.7-1.2,5-1.5,2.9-5.2C850.8,171.7,847.7,167.4,843.3,162.7L843.3,162.7z M867.4,146.9
		c7.4,3.4,14.4,7.6,20.5,12.9c3.2,2.8,5.7,2.2,9,0.2C887.5,154.2,877.8,149.8,867.4,146.9L867.4,146.9z"/>
	<path class="st0" d="M844.9,356.5c37.7,3.4,74.8,6.8,112.4,10.2c-1.1-1.7-2.5-1.9-3.7-2.3c-9.4-3.5-18.6-7.5-27-13.2
		c-11.2-7.7-16.5-18.5-15.6-31.7c1.3-20.2,3.4-40.3,5.4-60.5c0.9-9.6,4.2-13,13.7-14.3c6.2-0.9,12.4-1.2,18.4-3.1
		c26.8-8.3,45.8-25.1,56.9-51c8-18.8,9.7-38.6,10.1-58.7c0.3-17.4-1.4-34.6-4.2-51.7c-1.2-7.3-2.7-14.5-4.1-21.7
		c-0.5-2.7-1-5.5,2.4-6.7c2.3-0.8,4.8,1.3,5.6,4.9c8.3,35.3,12.5,71,7.4,107.2c-2.8,19.8-8.8,38.4-21.6,54.3
		c-17.1,21.3-38.9,33.5-66.3,35.5c-8,0.6-8.7,1.2-9.4,9.3c-1.5,16.6-3,33.2-4.5,49.8c-0.4,4.3-0.6,8.6,0.2,12.9
		c1.6,9.1,7.5,14.8,14.8,19.4c7.3,4.6,15.3,8,23.1,11.8c2,1,3.9,2,5.4,3.6c2.9,3.1,3.5,7,1.8,10.6c-1.8,3.7-5.1,5.7-9.2,5.3
		c-37.4-3.3-74.8-6.7-112.3-10.2c-5.6-0.5-9-3.7-9.7-8.7c-0.6-4.3,2.3-8.5,7.6-10.2c5.7-1.8,11.5-3.3,17.3-4.9
		c6-1.7,11.9-3.7,17.3-6.9c7.1-4.3,11.5-10.7,12.4-18.8c2.2-20,3.8-40.1,5.7-60.1c0.4-3.9-1.6-6-5.2-6.8c-28.3-6.3-48.6-23-62-48.3
		c-7.7-14.5-11-30.4-11.1-46.8c-0.4-40.4,11-78.1,27.1-114.6c1.2-2.6,3-3.9,5.7-2.8c2.9,1.2,2.6,3.7,1.6,6.1
		c-7.9,18.7-14.3,37.9-18.8,57.6c-4.9,21.7-8.2,43.7-4.7,65.9c5.7,35.8,25.5,60.6,60.3,72.5c2.4,0.8,5,1.2,7.3,2.2
		c6.8,2.7,9.8,6.9,9.2,14.1c-1.7,21.2-3.2,42.5-5.9,63.5c-1.9,14.5-11,24.1-25,29c-8,2.8-16.1,4.8-24.4,6.2
		C847.8,354.9,846.3,354.9,844.9,356.5L844.9,356.5z"/>
	<path class="st0" d="M972.1,102.8c-1.2,12.9-12.4,22.4-25.2,21.3c-14.1-1.1-22.3-14-21-25.7c1.3-12.8,12.6-22,25.6-20.7
		C963.9,79,973.2,90.3,972.1,102.8L972.1,102.8z M951.3,85.6c-8.3-0.7-15.4,5-16.2,13.2c-0.8,7.1,6,15.4,13.2,16.1
		c8.4,0.9,15.4-5.1,16.1-13.7C965.1,93,959.5,86.4,951.3,85.6L951.3,85.6z"/>
</g>
<g>
	<path class="st0" d="M343.7,214.1L278.3,47.3h31.2l50.5,135h2.3l50.5-135h29.8l-65.4,166.8H343.7L343.7,214.1z"/>
	<path class="st0" d="M450.3,60.4c0-9.4,6.7-16.1,16.1-16.1s16.1,6.8,16.1,16.1s-6.7,16.1-16.1,16.1S450.3,69.7,450.3,60.4z
		 M453.1,214.1V93.5h26.3v120.6H453.1z"/>
	<path class="st0" d="M502.7,214.1v-66.4c0-39.7,22.8-57.5,59.6-57.5c36.8,0,59.6,16.6,59.6,56.3v67.5h-26.3v-67.5
		c0-23.4-12.3-33.9-33.3-33.9c-21,0-33.3,11.5-33.3,35v66.4H502.7L502.7,214.1z M545,63.2c-5.1,0-9.5,3.7-10.5,11.7h-17.7
		c1.9-22.7,16.8-32,29.6-32c18.4,0,22.1,15.2,33.3,15.2c5.3,0,9.8-3.7,10.7-11.7h17.5c-1.6,22.7-15.4,32-28.2,32
		C561.1,78.4,556.2,63.2,545,63.2L545,63.2z"/>
	<path class="st0" d="M640.5,153.8c0-42,25.4-63.5,55.9-63.5c17.9,0,31.7,6.1,41.7,20.1h2.3l2.3-16.8h24v120.6h-24l-2.3-17.3H738
		c-9.8,14.2-23.5,20.6-41.7,20.6C665.8,217.4,640.5,195.6,640.5,153.8L640.5,153.8z M741,153.8c0-26.9-15.4-41.6-37-41.6
		c-21.6,0-36.5,14.5-36.5,41.6s15.1,41.6,36.5,41.6C725.4,195.4,741,180.5,741,153.8z"/>
</g>
<g>
	<path class="st0" d="M37,366.7v-160h62.3c46.4,0,61.4,23.8,61.4,52.7s-15,52.7-61.4,52.7H63.4v54.7H37L37,366.7z M63.4,288.3h34.3
		c25.5,0,35.4-11.7,35.4-28.9s-9.9-28.9-35.4-28.9H63.4V288.3L63.4,288.3z"/>
	<path class="st0" d="M175.9,219.2c0-9,6.5-15.5,15.5-15.5s15.5,6.5,15.5,15.5s-6.5,15.5-15.5,15.5S175.9,228.2,175.9,219.2z
		 M178.6,366.7V251.1h25.3v115.7L178.6,366.7L178.6,366.7z"/>
	<path class="st0" d="M221.9,308.9c0-41.2,26.4-61,60.3-61c26.7,0,50.6,14.8,54,43h-24.6c-2.9-14.8-15.9-22.6-29.6-22.6
		c-19.7,0-34.1,13.9-34.1,40.6s14.3,40.3,34.1,40.3c13.7,0,26.7-7.6,29.6-22.4h24.6c-3.4,28.2-27.3,43-54,43
		C248.3,369.9,221.9,350.2,221.9,308.9L221.9,308.9z"/>
	<path class="st0" d="M348.4,308.9c0-41.2,26-61,61.8-61s61.8,19.7,61.8,61s-25.8,61-61.8,61S348.4,350.2,348.4,308.9z M446.3,308.9
		c0-27.3-14.8-40.6-36.1-40.6c-21.3,0-35.8,13.2-35.8,40.6s14.6,40.3,36.1,40.3C432,349.3,446.3,336.3,446.3,308.9z"/>
	<path class="st0" d="M503,366.7v-94.1h-27.1v-21.5H503v-30.9h25.3v30.9h30.2v21.5h-30.2v94.1H503z"/>
	<path class="st0" d="M562.4,308.9c0-40.6,25.5-61,60.3-61s56.9,22,56.9,58.7c0,2.5-0.2,6.5-0.7,9h-91.2
		c1.8,22.4,16.1,34.7,34.7,34.7c11.4,0,22.2-5.2,27.3-14.6h25.1c-6.7,21.3-26.9,34.1-52.2,34.1C585.5,369.9,562.4,346.8,562.4,308.9
		L562.4,308.9z M653.6,297.9c-2-19.7-15.5-30.7-32-30.7c-16.6,0-30.5,10.8-33.2,30.7H653.6z"/>
	<path class="st0" d="M693,308.9c0-41.2,26-61,61.8-61c35.8,0,61.8,19.7,61.8,61s-25.8,61-61.8,61C718.8,369.9,693,350.2,693,308.9z
		 M791,308.9c0-27.3-14.8-40.6-36.1-40.6c-21.3,0-35.8,13.2-35.8,40.6s14.6,40.3,36.1,40.3S791,336.3,791,308.9z"/>
</g>
</svg>
