<svg width="40" height="40" viewBox="0 0 40 40" fill="none" xmlns="http://www.w3.org/2000/svg">
<g id="Vector">
<path id="Vector_2" d="M28.4316 0.552612H11.5685C5.47374 0.552612 0.526367 5.49998 0.526367 11.5947V28.4473C0.526367 34.5526 5.47374 39.4895 11.5685 39.4895H21.3264V24.4052H16.2527V18.5316H21.3264V14.1947C21.3264 9.16314 24.4001 6.4263 28.8843 6.4263C31.0316 6.4263 32.8843 6.58419 33.4211 6.65788V11.9105H30.3053C27.8632 11.9105 27.3895 13.0684 27.3895 14.7737V18.5316H33.2106L32.4527 24.4052H27.3895V39.4895H28.4211C34.5264 39.4895 39.4632 34.5421 39.4632 28.4473V11.5947C39.4632 5.48945 34.5158 0.552612 28.4211 0.552612H28.4316Z" fill="#007D7B"/>
</g>
</svg>
