<svg width="38" height="39" viewBox="0 0 38 39" fill="none" xmlns="http://www.w3.org/2000/svg">
<g id="WSP">
<path id="Vector" fill-rule="evenodd" clip-rule="evenodd" d="M37.4702 18.5211C37.2302 8.24742 29.2102 0.0263672 19.3302 0.0263672C9.45023 0.0263672 1.60023 8.04742 1.19023 18.1632C1.16023 18.4264 1.16023 18.7211 1.16023 18.9737C1.16023 22.5737 2.12023 25.9211 3.76023 28.8053L0.490234 38.9737L10.5602 35.6158C13.1602 37.1211 16.1602 37.9527 19.3302 37.9527C29.3602 37.9527 37.5102 29.479 37.5102 18.9737C37.5102 18.8158 37.4702 18.679 37.4702 18.5211ZM19.3302 34.9632C16.2302 34.9632 13.3502 33.9843 10.9202 32.3211L5.06023 34.279L6.95023 28.3422C5.12023 25.7422 4.03023 22.4685 4.03023 18.9737C4.03023 18.4579 4.07023 17.9632 4.13023 17.4474C4.87023 9.35268 11.4102 3.03689 19.3102 3.03689C27.2102 3.03689 33.9302 9.53163 34.5502 17.7422C34.5802 18.1632 34.5802 18.5948 34.5802 18.9737C34.5802 27.7843 27.7302 34.9632 19.3102 34.9632H19.3302Z" fill="#007D7B"/>
<path id="Vector_2" fill-rule="evenodd" clip-rule="evenodd" d="M24.6302 21.1316C24.1902 21.0158 23.9102 20.9105 23.6002 21.3948C23.1502 22.1527 22.1902 23.8158 21.2502 23.3211C20.7802 23.1 19.3602 22.6053 17.6502 21.0053C16.3302 19.7527 15.4202 18.2579 15.1802 17.8053C14.7902 17.0369 16.0302 16.2263 16.4802 15.2579C16.6302 14.9421 16.5702 14.6684 16.4402 14.4474C16.3502 14.2263 15.4602 11.9105 15.0802 10.9948C14.7102 10.0474 14.3402 10.2158 14.1002 10.2158C11.6302 10.2158 10.4702 12.0579 10.4702 14.6474C10.4702 15.1632 10.5702 15.7211 10.7202 16.2158C11.1602 17.879 12.1502 19.2158 12.3002 19.4474C12.5102 19.7632 15.3702 24.6053 19.9002 26.4579C24.4502 28.3211 24.4502 27.6895 25.2602 27.6263C26.0602 27.5632 27.8902 26.5211 28.2602 25.4053C28.6302 24.3316 28.6302 23.3842 28.5002 23.1842C28.3502 22.9 24.6402 21.1421 24.6402 21.1211L24.6302 21.1316Z" fill="#007D7B"/>
</g>
</svg>
