<svg width="38" height="39" viewBox="0 0 38 39" fill="none" xmlns="http://www.w3.org/2000/svg">
<g id="INSTAGRAM">
<path id="Vector" d="M27.01 2.65795C31.42 2.65795 35 6.43689 35 11.0685V27.9211C35 32.5632 31.41 36.3316 27.01 36.3316H10.99C6.58 36.3316 3 32.5527 3 27.9211V11.0685C3 6.42637 6.59 2.65795 10.99 2.65795H27M27 0.0263672H10.99C5.2 0.0263672 0.5 4.97374 0.5 11.0685V27.9211C0.5 34.0264 5.2 38.9632 10.99 38.9632H27C32.8 38.9632 37.49 34.0158 37.49 27.9211V11.0685C37.49 4.96321 32.79 0.0263672 27 0.0263672Z" fill="#007D7B"/>
<path id="Vector_2" d="M18.9299 12.058C22.8299 12.058 25.9999 15.3948 25.9999 19.5001C25.9999 23.6053 22.8299 26.9422 18.9299 26.9422C15.0299 26.9422 11.8599 23.6053 11.8599 19.5001C11.8599 15.3948 15.0299 12.058 18.9299 12.058ZM18.9299 9.42639C13.6499 9.42639 9.35986 13.9317 9.35986 19.5001C9.35986 25.0685 13.6399 29.5738 18.9299 29.5738C24.2199 29.5738 28.4999 25.0685 28.4999 19.5001C28.4999 13.9317 24.2199 9.42639 18.9299 9.42639Z" fill="#007D7B"/>
<path id="Vector_3" d="M28.8098 11.458C30.058 11.458 31.0698 10.3929 31.0698 9.07902C31.0698 7.76516 30.058 6.70007 28.8098 6.70007C27.5616 6.70007 26.5498 7.76516 26.5498 9.07902C26.5498 10.3929 27.5616 11.458 28.8098 11.458Z" fill="#007D7B"/>
</g>
</svg>
