<svg width="33" height="32" viewBox="0 0 33 32" fill="none" xmlns="http://www.w3.org/2000/svg">
<g id="Shopicon">
<path id="Vector" d="M27.5034 20L32.1612 5.83331H6.9554L5.31157 0.833313H0.609375V2.49998H4.12636L9.59129 19.1233L5.91979 27.5H28.5546V25.8333H8.44965L11.0066 20H27.5034ZM29.8795 7.49998L26.3181 18.3333H11.065L7.50362 7.49998H29.8795Z" fill="black"/>
<path id="Vector_2" d="M12.9383 31.6666C13.8461 31.6666 14.5821 30.9205 14.5821 30C14.5821 29.0795 13.8461 28.3333 12.9383 28.3333C12.0304 28.3333 11.2944 29.0795 11.2944 30C11.2944 30.9205 12.0304 31.6666 12.9383 31.6666Z" fill="black"/>
<path id="Vector_3" d="M22.8011 31.6666C23.7089 31.6666 24.4449 30.9205 24.4449 30C24.4449 29.0795 23.7089 28.3333 22.8011 28.3333C21.8932 28.3333 21.1572 29.0795 21.1572 30C21.1572 30.9205 21.8932 31.6666 22.8011 31.6666Z" fill="black"/>
</g>
</svg>
