<svg width="32" height="34" viewBox="0 0 32 34" fill="none" xmlns="http://www.w3.org/2000/svg">
<g id="Shopicon">
<path id="Vector" d="M19.9564 17.6225C22.8422 16.0908 24.8148 13.0316 24.8148 9.49998C24.8148 4.43748 20.7668 0.333313 15.7737 0.333313C10.7805 0.333313 6.73257 4.43748 6.73257 9.49998C6.73257 13.0316 8.70517 16.0908 11.5909 17.6225C4.99832 19.575 0.157227 26.0075 0.157227 33.6666H31.3901C31.3901 26.0075 26.549 19.575 19.9564 17.6225ZM8.37641 9.49998C8.37641 5.36415 11.6945 1.99998 15.7737 1.99998C19.8528 1.99998 23.1709 5.36415 23.1709 9.49998C23.1709 13.6358 19.8528 17 15.7737 17C11.6945 17 8.37641 13.6358 8.37641 9.49998ZM15.7737 18.6666C22.9531 18.6666 28.8857 24.5108 29.6608 32H1.88654C2.66161 24.5108 8.59421 18.6666 15.7737 18.6666Z" fill="black"/>
</g>
</svg>
