<?xml version="1.0" encoding="utf-8"?>
<!-- Generator: Adobe Illustrator 24.2.3, SVG Export Plug-In . SVG Version: 6.00 Build 0)  -->
<svg version="1.1" id="Capa_1" xmlns="http://www.w3.org/2000/svg" xmlns:xlink="http://www.w3.org/1999/xlink" x="0px" y="0px"
	 viewBox="0 0 268.6 289.9" style="enable-background:new 0 0 268.6 289.9;" xml:space="preserve">
<style type="text/css">
	.st0{fill:#020203;}
</style>
<g>
	<path class="st0" d="M166.8,278.2l2.5,11.7l70.5-14.8l-2.5-11.7l-29.4,6.2l-11.2-53.3c9.9-3.4,18.4-10.1,24.1-19.2
		c6.8-10.8,8.8-23.6,5.7-35.9l-31.8-128L124.1,48l2.7-15.7L45,15.2l-31.8,128c-3.1,12.4-1,25.1,5.7,35.9
		c5.7,9.1,14.1,15.7,24.1,19.2l-11.2,53.3l-29.4-6.2L0,257.1l70.5,14.8l2.5-11.7L43.6,254l11.2-53.3c1.2,0.1,2.5,0.2,3.7,0.2
		c9.2,0,18.2-2.7,26-8c10.5-7.2,17.6-18,19.7-30.6l14.1-81.2l17.2,99.2c2.2,12.6,9.2,23.4,19.7,30.6c7.8,5.3,16.8,8,26,8
		c1.2,0,2.5-0.1,3.7-0.2l11.2,53.3L166.8,278.2z M53.8,29.3L113,41.7L103,98.9l-4.4-4.4c-8.1-8.1-20.2-10.6-30.9-6.3
		c-7,2.8-15,0.5-19.5-5.5L42.5,75L53.8,29.3z M77.8,182.9c-7.8,5.3-17.2,7.2-26.5,5.2c-9.3-1.9-17.1-7.4-22.1-15.4
		c-5-8-6.5-17.5-4.3-26.7l13.9-56c7.8,10.2,21.5,14.1,33.5,9.3c6.2-2.5,13.2-1,18,3.7l10.3,10.3l-8.1,46.9
		C90.8,169.6,85.6,177.6,77.8,182.9z M185.9,47.3l10.6,42.8l-10.3,7.7c-4.3,3.2-9.9,3.7-14.7,1.3c-10-5-22.1-3.1-30.1,4.9l-5.9,5.9
		l-8.7-50.2L185.9,47.3z M162,200.9c-7.8-5.3-13-13.4-14.6-22.7l-9.3-53.9l11.9-11.9c4.3-4.3,10.8-5.3,16.2-2.6
		c8.9,4.4,19.3,3.5,27.3-2.5l6.3-4.7l15.2,61.4c2.3,9.2,0.8,18.6-4.3,26.7c-5,8-12.9,13.5-22.1,15.4
		C179.2,208.1,169.8,206.3,162,200.9z"/>
	<path class="st0" d="M232.6,0c0,13.2-10.8,24-24,24v12c13.2,0,24,10.8,24,24h12c0-13.2,10.8-24,24-24V24c-13.2,0-24-10.8-24-24
		H232.6z M238.6,40.1c-2.7-4-6.1-7.5-10.1-10.1c4-2.7,7.5-6.1,10.1-10.1c2.7,4,6.1,7.5,10.1,10.1C244.7,32.7,241.3,36.1,238.6,40.1z
		"/>
	<path class="st0" d="M106.3,199.6c0,13.2-10.8,24-24,24v12c13.2,0,24,10.8,24,24h12c0-13.2,10.8-24,24-24v-12
		c-13.2,0-24-10.8-24-24H106.3z M112.3,239.7c-2.7-4-6.1-7.5-10.1-10.1c4-2.7,7.5-6.1,10.1-10.1c2.7,4,6.1,7.5,10.1,10.1
		C118.4,232.2,114.9,235.7,112.3,239.7z"/>
</g>
</svg>
