<svg width="24" height="24" viewBox="0 0 24 24" fill="none" xmlns="http://www.w3.org/2000/svg">
<g id="CARRO 1">
<path id="Vector" d="M19.2001 14.1999H8.44586C8.13157 14.1999 7.87443 13.9427 7.87443 13.6284C7.87443 13.3141 8.13157 13.057 8.44586 13.057H18.7887L21.0973 6.137H5.57729C5.263 6.137 5.00586 5.87985 5.00586 5.56557C5.00586 5.25128 5.263 4.99414 5.57729 4.99414H21.8859C22.0687 4.99414 22.2401 5.07985 22.3487 5.23414C22.4573 5.38271 22.4859 5.577 22.4287 5.74843L19.743 13.8113C19.663 14.0456 19.4459 14.1999 19.2001 14.1999Z" fill="#F5F5F5"/>
<path id="Vector_2" d="M20.1887 18.8346H6.42868C6.2344 18.8346 6.05725 18.7374 5.94868 18.5774C5.84011 18.4174 5.82297 18.2117 5.90297 18.0346L7.82868 13.6117L4.01154 3.00028H2.1144C1.80011 3.00028 1.54297 2.74314 1.54297 2.42885C1.54297 2.11456 1.80011 1.85742 2.1144 1.85742H4.41154C4.65154 1.85742 4.86868 2.00599 4.94868 2.23456L8.98297 13.4346C9.0344 13.5717 9.02868 13.7203 8.97154 13.8574L7.30297 17.6917H20.1944C20.5087 17.6917 20.7658 17.9489 20.7658 18.2631C20.7658 18.5774 20.5087 18.8346 20.1944 18.8346H20.1887Z" fill="#F5F5F5"/>
<path id="Vector_3" d="M9.7884 22.1432C8.97697 22.1432 8.31982 21.4861 8.31982 20.6746C8.31982 19.8632 8.97697 19.2061 9.7884 19.2061C10.5998 19.2061 11.257 19.8632 11.257 20.6746C11.257 21.4861 10.5998 22.1432 9.7884 22.1432ZM9.7884 20.3489C9.61125 20.3489 9.46268 20.4918 9.46268 20.6746C9.46268 20.8575 9.60554 21.0003 9.7884 21.0003C9.97125 21.0003 10.1141 20.8575 10.1141 20.6746C10.1141 20.4918 9.97125 20.3489 9.7884 20.3489Z" fill="#F5F5F5"/>
<path id="Vector_4" d="M16.9544 22.1432C16.143 22.1432 15.4858 21.4861 15.4858 20.6746C15.4858 19.8632 16.143 19.2061 16.9544 19.2061C17.7658 19.2061 18.423 19.8632 18.423 20.6746C18.423 21.4861 17.7658 22.1432 16.9544 22.1432ZM16.9544 20.3489C16.7773 20.3489 16.6287 20.4918 16.6287 20.6746C16.6287 20.8575 16.7716 21.0003 16.9544 21.0003C17.1373 21.0003 17.2801 20.8575 17.2801 20.6746C17.2801 20.4918 17.1373 20.3489 16.9544 20.3489Z" fill="#F5F5F5"/>
</g>
</svg>
