<svg width="24" height="24" viewBox="0 0 24 24" fill="none" xmlns="http://www.w3.org/2000/svg">
<g id="COPA 1">
<path id="Vector" d="M12.2858 15.5371C10.6401 15.5371 9.10292 14.7771 7.96578 13.4057C6.74292 11.9257 6.16007 9.91425 6.36578 7.88568C6.37721 7.78282 6.38864 7.69711 6.40007 7.61139L6.63435 6.51425L8.16578 0.571394C8.22864 0.319965 8.45721 0.142822 8.72007 0.142822H15.8572C16.1201 0.142822 16.3429 0.319965 16.4115 0.571394L17.9372 6.47997L18.1715 7.57711C18.1886 7.69139 18.2001 7.77711 18.2115 7.86282V7.87425C18.4172 9.90282 17.8344 11.92 16.6115 13.3943C15.4743 14.7714 13.9429 15.5257 12.2915 15.5257L12.2858 15.5371ZM9.16007 1.28568L7.74864 6.76568L7.52578 7.81711C7.52007 7.85711 7.51435 7.91997 7.50864 7.98282C7.33149 9.71997 7.82292 11.4228 8.85149 12.6685C9.76578 13.7771 10.9886 14.3885 12.2915 14.3885C13.5944 14.3885 14.8115 13.7771 15.7315 12.6685C16.7601 11.4228 17.2515 9.71996 17.0744 7.98854V7.97711C17.0686 7.91425 17.0629 7.85139 17.0515 7.78282L16.8286 6.73139L15.4229 1.27425H9.17149L9.16007 1.28568Z" fill="#02111B"/>
<path id="Vector_2" d="M12.2858 21.68C11.9715 21.68 11.7144 21.4229 11.7144 21.1086V15.4286C11.7144 15.1143 11.9715 14.8572 12.2858 14.8572C12.6001 14.8572 12.8572 15.1143 12.8572 15.4286V21.1086C12.8572 21.4229 12.6001 21.68 12.2858 21.68Z" fill="#02111B"/>
<path id="Vector_3" d="M15.6514 23.8572H8.91994C8.66851 23.8572 8.43994 23.6914 8.37137 23.4457C8.3028 23.2 8.39994 22.9429 8.61137 22.8057L11.9771 20.6629C12.1657 20.5429 12.4057 20.5429 12.5885 20.6629L15.9542 22.8057C16.1714 22.9429 16.2685 23.2057 16.1942 23.4457C16.1199 23.6857 15.8971 23.8572 15.6457 23.8572H15.6514ZM10.8799 22.7143H13.6914L12.2857 21.8172L10.8799 22.7143Z" fill="#02111B"/>
</g>
</svg>
