<svg width="26" height="24" viewBox="0 0 26 24" fill="none" xmlns="http://www.w3.org/2000/svg">
<g id="CORREO 2">
<path id="Vector" d="M21.6848 3.92551C22.6201 3.92551 23.3792 4.68462 23.3792 5.61984V7.54495V7.8911V19.0713C23.3792 19.6239 22.9298 20.0733 22.3772 20.0733H19.1889V10.551L17.2456 12.0085L12.5695 15.5186L7.89335 12.0085L5.95003 10.551V20.0733H2.76177C2.32452 20.0733 1.948 19.7939 1.8144 19.3871V5.20689C2.00266 4.45993 2.68282 3.93159 3.46015 3.93159C3.83059 3.93159 4.19496 4.05304 4.49861 4.28381L6.16865 5.51661L6.19901 5.5409L6.30832 5.61984L11.8346 9.77369L12.5634 10.3202L13.2921 9.77369L18.8306 5.61377L18.9278 5.5409L18.952 5.52268L20.6403 4.27167C20.9318 4.05304 21.3023 3.93159 21.6727 3.93159M21.6727 2.71701C21.0411 2.71701 20.4156 2.92349 19.9116 3.30001L18.199 4.56316L12.5634 8.79596L6.92776 4.56316L5.21521 3.30001C4.71116 2.92349 4.08565 2.71094 3.45407 2.71094C2.08768 2.71094 0.891321 3.67652 0.605896 5.01256C0.599823 5.05507 0.59375 5.0915 0.59375 5.13401V19.4781C0.59375 19.5267 0.59375 19.5753 0.611969 19.6178C0.860956 20.6016 1.74152 21.2879 2.75569 21.2879H6.57553C6.89739 21.2879 7.15245 21.0267 7.15245 20.7109V12.9802L12.2112 16.7757C12.3144 16.8547 12.4359 16.8911 12.5573 16.8911C12.6788 16.8911 12.8002 16.8547 12.9035 16.7757L17.9622 12.9802V20.7109C17.9622 21.0328 18.2233 21.2879 18.5391 21.2879H22.3589C23.5796 21.2879 24.5755 20.2919 24.5755 19.0713V7.76964C24.5755 7.76964 24.5755 7.76964 24.5755 7.76357V5.63199C24.5755 4.02875 23.2699 2.72308 21.6666 2.72308L21.6727 2.71701Z" fill="#1D1D1B"/>
</g>
</svg>
