<svg width="40" height="40" viewBox="0 0 40 40" fill="none" xmlns="http://www.w3.org/2000/svg">
<g id="LUPA 1">
<path id="Vector" d="M18.0885 34.7535C8.89807 34.7535 1.42188 27.2773 1.42188 18.0868C1.42188 8.89635 8.90759 1.42969 18.0885 1.42969C27.2695 1.42969 34.7552 8.90588 34.7552 18.0964C34.7552 27.2868 27.279 34.763 18.0885 34.763V34.7535ZM18.0885 3.33445C9.95521 3.33445 3.32664 9.9535 3.32664 18.0964C3.32664 26.2392 9.94568 32.8583 18.0885 32.8583C26.2314 32.8583 32.8504 26.2392 32.8504 18.0964C32.8504 9.9535 26.2314 3.33445 18.0885 3.33445Z" fill="#1D1D1B"/>
<path id="Vector_2" d="M37.6193 38.5713C37.3717 38.5713 37.1241 38.476 36.9431 38.2855L28.6098 29.7808C28.2384 29.4093 28.2479 28.7998 28.6193 28.4379C29.0003 28.0665 29.6003 28.076 29.9717 28.4474L38.305 36.9522C38.6765 37.3236 38.6669 37.9332 38.2955 38.2951C38.105 38.476 37.8669 38.5713 37.6288 38.5713H37.6193Z" fill="#1D1D1B"/>
</g>
</svg>
