<svg width="26" height="24" viewBox="0 0 26 24" fill="none" xmlns="http://www.w3.org/2000/svg">
<g id="CORREO 2">
<path id="Vector" d="M18.5833 23.5773C17.721 23.5773 16.2574 23.2554 12.8506 21.8769C8.02869 19.9092 4.66432 15.476 3.08537 13.0105L2.95784 12.8222C1.9801 11.4194 1.29994 10.0287 0.941643 8.68657C0.729093 7.99426 0.601562 7.23516 0.601562 6.57928C0.607635 2.73516 2.53881 0.445681 5.76958 0.445681H5.84245C6.4133 0.397098 7.05703 0.530701 7.54893 1.79386C7.94974 2.75337 8.81816 4.9639 9.1461 5.79588L9.25541 6.07524C9.52262 6.57321 9.53476 7.08333 9.29792 7.58131C9.06108 8.08536 8.68456 8.5469 8.35662 8.94771C7.94367 9.45783 7.51249 9.98009 7.65217 10.2594C8.03476 10.976 9.17039 12.719 10.6522 14.1036C12.4315 15.7554 13.974 16.4295 14.7149 16.7514C14.8485 16.806 14.9578 16.8546 15.0429 16.8971C15.7169 17.2554 16.8404 15.4032 17.2048 14.7959L17.2534 14.7109C17.8667 13.7574 18.5955 13.9578 19.1238 14.0975L19.2028 14.1218C19.2574 14.1339 19.306 14.1582 19.3485 14.1825C19.4093 14.2129 19.5732 14.2918 19.8101 14.4072C23.9761 16.4356 24.2797 16.7028 24.4254 16.976C24.7655 17.4983 24.5651 19.0469 24.1643 20.2129C23.5935 21.8829 21.0064 23.2797 19.8769 23.3769C19.7311 23.389 19.6157 23.4194 19.4943 23.4497C19.2331 23.5105 18.972 23.5773 18.5894 23.5773H18.5833ZM5.9882 1.58738C5.9882 1.58738 5.95177 1.58738 5.92747 1.58738C5.87282 1.58738 5.81816 1.59345 5.76958 1.59345C2.28375 1.59953 1.76755 4.71491 1.76755 6.57321C1.76755 7.11977 1.87079 7.75742 2.05905 8.36471C2.39306 9.60358 3.01249 10.8728 3.91128 12.1603L4.0631 12.391C5.2716 14.2858 8.59347 18.8951 13.2878 20.808C17.8607 22.6603 18.6137 22.4781 19.221 22.3323C19.3789 22.2959 19.5611 22.2473 19.7858 22.2291C20.5995 22.1623 22.6825 20.9902 23.0712 19.8424C23.4416 18.7675 23.472 17.8748 23.4234 17.5833C23.1441 17.389 22.1785 16.8485 19.306 15.4518C19.1238 15.3607 18.9781 15.2939 18.8688 15.2331L18.8263 15.221C18.5348 15.14 18.3404 15.1765 18.2433 15.3303L18.2008 15.3971C17.5388 16.4963 16.1542 18.7797 14.5267 17.9356C14.4659 17.9052 14.3748 17.8688 14.2534 17.8141C13.4518 17.4679 11.7939 16.7392 9.8627 14.9538C7.87079 13.0894 6.68051 10.891 6.63193 10.7999C6.14002 9.84042 6.84448 8.97807 7.46391 8.21896C7.76755 7.84852 8.07727 7.46592 8.25946 7.08941C8.33841 6.91937 8.33233 6.78576 8.22909 6.60358C8.21695 6.57928 8.2048 6.56107 8.19873 6.53677L8.0712 6.22098C7.74326 5.389 6.88092 3.18455 6.48011 2.23111C6.25541 1.66026 6.12181 1.59345 5.9882 1.59345V1.58738Z" fill="#1D1D1B"/>
</g>
</svg>
